<?xml version="1.0" encoding="utf-8"?>
<!-- Generator: Adobe Illustrator 24.2.1, SVG Export Plug-In . SVG Version: 6.00 Build 0)  -->
<svg version="1.1" id="Capa_1" xmlns="http://www.w3.org/2000/svg" xmlns:xlink="http://www.w3.org/1999/xlink" x="0px" y="0px"
	 viewBox="0 0 512.1 512.1" style="enable-background:new 0 0 512.1 512.1;" xml:space="preserve">
<style type="text/css">
	.st0{fill:#FFFFFF;}
</style>
<g>
	<g>
		<g>
			<path class="st0" d="M426.6,188.2C403,93.9,307.4,36.7,213.1,60.4C139.4,78.9,85.9,142.5,80.4,218.3
				c-52.3,8.6-87.7,58-79.1,110.3c7.7,46.5,48,80.6,95.1,80.4h80v-32h-80c-35.3,0-64-28.7-64-64s28.7-64,64-64c8.8,0,16-7.2,16-16
				C112.3,153.5,176.7,89,256.3,88.9c68.8-0.1,128.1,48.6,141.4,116.1c1.3,6.7,6.8,11.9,13.6,12.8c43.7,6.2,74.2,46.7,67.9,90.5
				c-5.6,39.3-39.1,68.5-78.8,68.7h-64v32h64c61.9-0.2,111.8-50.5,111.7-112.3C511.9,245.2,476.7,200.4,426.6,188.2z"/>
			<path class="st0" d="M245,253.7l-64,64l22.6,22.6l36.8-36.6V457h32V303.6l36.6,36.6l22.6-22.6l-64-64
				C261.4,247.5,251.3,247.5,245,253.7z"/>
		</g>
	</g>
</g>
</svg>
